<?xml version="1.0" standalone="no"?>
<!DOCTYPE svg PUBLIC "-//W3C//DTD SVG 20010904//EN"
 "http://www.w3.org/TR/2001/REC-SVG-20010904/DTD/svg10.dtd">
<svg version="1.0" xmlns="http://www.w3.org/2000/svg"
 width="350.000000pt" height="350.000000pt" viewBox="0 0 350.000000 350.000000"
 preserveAspectRatio="xMidYMid meet">

<g transform="translate(0.000000,350.000000) scale(0.100000,-0.100000)"
fill="#000000" stroke="none">
<path d="M1245 2695 c-7 -11 -33 -55 -58 -97 l-47 -78 495 0 c282 0 495 -4
495 -9 0 -5 -25 -51 -55 -102 -30 -52 -55 -97 -55 -101 0 -5 108 -8 240 -8
132 0 240 3 240 8 0 4 -51 95 -113 202 l-112 195 -509 5 c-501 5 -509 5 -521
-15z"/>
<path d="M891 2084 l-124 -216 22 -36 c12 -21 38 -67 59 -104 20 -38 39 -68
42 -68 3 0 18 24 34 53 16 28 84 147 151 262 67 116 136 236 154 268 l32 57
-123 0 -123 0 -124 -216z"/>
<path d="M1423 2143 c-283 -490 -387 -670 -395 -689 -8 -17 11 -56 113 -232
l122 -212 499 0 498 0 26 43 c14 23 86 148 160 277 75 129 147 254 160 278
l25 42 -123 0 -123 0 -125 -215 -124 -215 -375 2 -376 3 -61 106 -61 106 221
384 c122 211 234 405 249 432 l28 47 -123 0 -123 0 -92 -157z"/>
<path d="M1705 1768 c-99 -172 -182 -316 -183 -320 -2 -5 108 -7 244 -6 l248
3 58 100 58 100 -120 3 c-66 1 -120 6 -120 10 1 4 27 52 59 107 l59 100 371 3
c204 1 371 5 371 8 0 4 -26 51 -57 105 l-58 99 -375 0 -375 0 -180 -312z"/>
<path d="M830 940 c0 -5 11 -10 25 -10 23 0 24 -3 27 -72 2 -40 8 -73 13 -73
6 0 11 33 13 73 3 69 4 72 27 72 14 0 25 5 25 10 0 6 -28 10 -65 10 -37 0 -65
-4 -65 -10z"/>
<path d="M1002 927 c-44 -46 -21 -129 39 -142 83 -19 141 72 88 139 -28 35
-95 37 -127 3z m102 -13 c24 -24 20 -80 -6 -98 -31 -22 -54 -20 -78 6 -24 26
-26 56 -4 86 18 26 65 30 88 6z"/>
<path d="M1185 923 c10 -16 24 -37 32 -48 7 -11 13 -34 13 -52 0 -17 5 -35 10
-38 6 -4 10 9 10 30 0 25 10 52 30 82 34 50 35 53 17 53 -7 0 -21 -13 -30 -30
-10 -16 -21 -30 -25 -30 -4 0 -16 14 -25 30 -10 17 -25 30 -34 30 -13 0 -13
-3 2 -27z"/>
<path d="M1355 925 c-25 -24 -32 -65 -19 -100 10 -26 62 -48 100 -40 41 7 64
38 64 85 0 74 -92 109 -145 55z m109 -17 c21 -30 20 -50 -5 -82 -27 -34 -62
-34 -89 1 -36 46 -8 103 51 103 17 0 34 -8 43 -22z"/>
<path d="M1540 870 l0 -80 48 0 c56 0 88 19 95 56 12 64 -27 104 -103 104
l-40 0 0 -80z m98 44 c47 -33 17 -104 -45 -104 l-33 0 0 60 c0 59 0 60 28 60
15 0 38 -7 50 -16z"/>
<path d="M1754 893 c-40 -90 -44 -102 -34 -108 5 -3 14 4 20 15 8 15 21 20 50
20 29 0 42 -5 50 -20 6 -11 15 -18 20 -15 11 7 -52 157 -68 163 -7 2 -24 -22
-38 -55z m54 -12 c12 -34 8 -41 -25 -41 -26 0 -28 8 -11 45 15 33 24 32 36 -4z"/>
<path d="M1985 925 c-26 -25 -33 -72 -15 -104 14 -27 64 -44 105 -37 34 7 35
8 35 51 0 41 -2 45 -24 45 -14 0 -28 -4 -31 -10 -3 -5 3 -10 14 -10 16 0 21
-6 21 -25 0 -32 -40 -44 -74 -21 -68 44 -22 132 58 112 28 -7 45 9 20 18 -36
14 -85 6 -109 -19z"/>
<path d="M2176 929 c-30 -24 -36 -81 -11 -116 21 -30 74 -39 113 -19 33 17 42
33 42 80 0 68 -86 101 -144 55z m104 -19 c26 -26 25 -51 -1 -84 -27 -34 -62
-34 -89 1 -50 64 32 141 90 83z"/>
<path d="M2366 934 c-9 -8 -16 -21 -16 -28 0 -17 29 -42 58 -50 26 -9 30 -44
6 -53 -9 -3 -25 -1 -35 5 -13 8 -20 9 -25 1 -4 -6 0 -15 7 -20 23 -14 55 -10
79 9 33 27 21 64 -25 81 -45 16 -45 46 -1 46 16 1 31 6 34 13 6 18 -63 15 -82
-4z"/>
<path d="M2500 870 l0 -80 55 0 c30 0 55 5 55 10 0 6 -20 10 -45 10 -41 0 -45
2 -45 25 0 23 4 25 40 25 22 0 40 5 40 10 0 6 -18 10 -40 10 -36 0 -40 3 -40
25 0 23 4 25 40 25 22 0 40 5 40 10 0 6 -22 10 -50 10 l-50 0 0 -80z"/>
<path d="M2640 871 c0 -69 8 -100 21 -87 8 8 -3 166 -12 166 -5 0 -9 -36 -9
-79z"/>
</g>
</svg>
